<svg version="1.1" xmlns="http://www.w3.org/2000/svg" viewBox="0 0 707.33203125 314.02734375" width="1414.6640625" height="628.0546875">
  <!-- svg-source:excalidraw -->
  
  <defs>
    <style>
      @font-face {
        font-family: "Virgil";
        src: url("https://excalidraw.com/Virgil.woff2");
      }
      @font-face {
        font-family: "Cascadia";
        src: url("https://excalidraw.com/Cascadia.woff2");
      }
    </style>
  </defs>
  <g stroke-linecap="round" transform="translate(11.359375 47.74609375) rotate(0 118.27734375 44.9140625)"><path d="M0.45 0.56 C78.13 1.4, 154.72 0.21, 237.23 -0.4 M0.11 -0.61 C87.47 -0.98, 173.9 -0.42, 237.1 0.81 M236.01 0.77 C235.62 22.35, 238.92 46.71, 238.55 88.93 M236.93 -0.39 C236.33 31.57, 237.05 60.2, 237.5 89.47 M234.98 89.44 C179.29 89.46, 123.74 86.55, -1.43 88.91 M237.08 89.67 C161.11 89.81, 86.3 90.59, -0.04 89.08 M1.34 91.23 C-2.07 61.27, -0.6 35.57, -1.58 0.82 M0.75 89.25 C0.56 68.39, 0.64 47.92, -0.27 0.3" stroke="#000000" stroke-width="1" fill="none"></path></g><g stroke-linecap="round"><g transform="translate(86.14062500000011 65.2109375) rotate(0 -0.4265602012256977 26.62876514805481)"><path d="M0.45 -0.47 C0.43 8.59, -0.25 46.17, -0.21 55.03 M-0.77 -1.77 C-0.96 6.93, -1.44 44.33, -1.27 53.52" stroke="#000000" stroke-width="1" fill="none"></path></g></g><g transform="translate(23.7109375 83.08203125) rotate(0 30.5 10)"><text x="0" y="14" font-family="Virgil, Segoe UI Emoji" font-size="16px" fill="#000000" text-anchor="start" style="white-space: pre;" direction="ltr">int32(1)</text></g><g transform="translate(94.9609375 82.6171875) rotate(0 34 10)"><text x="0" y="14" font-family="Virgil, Segoe UI Emoji" font-size="16px" fill="#000000" text-anchor="start" style="white-space: pre;" direction="ltr">int32(2)</text></g><g stroke-linecap="round"><g transform="translate(165.4375 63.771484375) rotate(0 0.4943484563912648 26.590353640448313)"><path d="M0.93 -0.04 C1.14 8.99, 0.93 45.41, 0.87 54.28 M-0.03 -1.1 C0.12 7.55, 0.36 43.18, 0.38 52.39" stroke="#000000" stroke-width="1" fill="none"></path></g></g><g transform="translate(169.27734375 83.25) rotate(0 33.5 10)"><text x="0" y="14" font-family="Virgil, Segoe UI Emoji" font-size="16px" fill="#000000" text-anchor="start" style="white-space: pre;" direction="ltr">int32(3)</text></g><g stroke-linecap="round" transform="translate(10 200.125) rotate(0 330.162109375 44.9140625)"><path d="M0.37 0.4 C206.93 -2.16, 415.2 -1.23, 660.84 0.62 M-0.07 0.19 C258.1 -1.57, 516.24 -1.69, 660.24 -0.16 M658.8 0.41 C660.08 33.29, 661.41 67.62, 661.54 88.6 M660.82 0.22 C659.75 28.22, 659.48 55.36, 659.7 89.61 M661.05 90.29 C464.93 88.92, 268.27 89, 0.06 90.43 M660.07 90.17 C399.93 89.18, 139.26 89.22, -0.17 89.63 M-0.28 88.25 C1.27 54.58, 1.25 18.16, -1.45 0.43 M-0.02 89.53 C0.75 66.05, 1.08 42.5, 0.75 -0.54" stroke="#000000" stroke-width="1" fill="none"></path></g><g stroke-linecap="round" transform="translate(20.97265625 215.02462831140178) rotate(0 145.28125 32.031631156799165)"><path d="M1.23 -1.14 C112.63 0.34, 225.6 0.27, 290.72 0.56 M0.33 -0.46 C88.86 -2.45, 177.24 -1.55, 289.97 0.22 M290.57 1.91 C290.03 14.57, 291.02 33.62, 288.64 65.2 M290.29 -0.6 C290.26 19.51, 290.07 37.85, 291.35 63.57 M291.04 64.05 C210.78 64.76, 133.62 64.97, -0.73 63.08 M290.22 63.71 C185.58 65.52, 79.03 65.07, -0.47 64.46 M-1.6 65.28 C1.9 42.51, 1.72 25.72, -1.64 -0.19 M-0.12 63.94 C-1.22 38.93, -0.48 13.84, 0.34 -0.82" stroke="#000000" stroke-width="1" fill="none"></path></g><g stroke-linecap="round"><g transform="translate(162.14646900609534 219.5418746910293) rotate(0 0.033859789661903505 29.499665322246187)"><path d="M0.98 -0.92 C0.98 8.92, 0.44 48.67, 0.29 58.58 M0.04 1.22 C-0.18 11.27, -0.73 50.18, -0.92 59.91" stroke="#000000" stroke-width="1" fill="none"></path></g></g><g transform="translate(69.02093818164678 234.409054705656) rotate(0 21 9.5)"><text x="0" y="14" font-family="Virgil, Segoe UI Emoji" font-size="15.088270069719085px" fill="#000000" text-anchor="start" style="white-space: pre;" direction="ltr">int32</text></g><g transform="translate(204.94293963667587 236.81802484252046) rotate(0 28.5 9.5)"><text x="0" y="14" font-family="Virgil, Segoe UI Emoji" font-size="15.088270069719085px" fill="#000000" text-anchor="start" style="white-space: pre;" direction="ltr">int32(1)</text></g><g stroke-linecap="round" transform="translate(326.55078125 216.09727509320078) rotate(0 145.28125 32.031631156799165)"><path d="M1.16 -0.48 C84.83 1.99, 169.16 1.88, 289.84 0.11 M0.6 0.73 C93.89 0.25, 188.7 -0.28, 290 0.25 M290.11 -1.36 C291.07 14.04, 291.63 26.34, 291.26 65.57 M290.48 0.56 C290.86 23.51, 290.41 48.62, 289.67 63.33 M290.01 64.26 C190.98 64.46, 91.46 62.8, 1 64.66 M290.2 63.45 C177.94 62.3, 64.55 63.11, 0.19 64.27 M0.67 62.26 C1.25 47.59, -0.97 31.63, 1.89 0.14 M-0.31 63.17 C-0.31 40.69, 0.93 15.35, -0.07 -0.32" stroke="#000000" stroke-width="1" fill="none"></path></g><g stroke-linecap="round"><g transform="translate(467.72459400609523 220.6145214728283) rotate(0 0.556089192691843 28.844871189955768)"><path d="M0.93 -0.38 C1.21 9.65, 1.12 49.39, 1.15 59.32 M-0.04 -1.63 C0.16 8.1, 0.3 47, 0.4 57.38" stroke="#000000" stroke-width="1" fill="none"></path></g></g><g transform="translate(374.3060944316468 235.48170148745498) rotate(0 21 9.5)"><text x="0" y="14" font-family="Virgil, Segoe UI Emoji" font-size="15.088270069719085px" fill="#000000" text-anchor="start" style="white-space: pre;" direction="ltr">int32</text></g><g transform="translate(510.5210646366759 237.89067162431957) rotate(0 32 9.5)"><text x="0" y="14" font-family="Virgil, Segoe UI Emoji" font-size="15.088270069719085px" fill="#000000" text-anchor="start" style="white-space: pre;" direction="ltr">int32(2)</text></g><g stroke-linecap="round" transform="translate(645.0859375 184.71484375) rotate(0 26.123046875 59.65625)"><path d="M-1.19 1.2 L53.4 -1.01 L52.26 121.03 L-0.98 118.67" stroke="none" stroke-width="0" fill="#fff"></path><path d="M1.07 -0.13 C11.37 -1.48, 21.04 -1.86, 52.58 -0.09 M0.54 0.02 C12.85 0.44, 25.01 0.45, 52.54 0.53 M52.62 0.86 C51.28 29.43, 50.48 61.82, 52.89 118.83 M51.74 0.65 C50.98 37.07, 52.33 74.9, 51.3 118.42 M53.98 120.8 C32.02 118.08, 16.72 119.96, -1.79 119.76 M53.15 119.07 C40.49 120.11, 30.45 120.55, 0.95 120.13 M1.14 120.51 C0.15 83.01, 0.72 45.17, -0.34 -1.32 M-0.05 118.58 C-1.51 84.81, -0.87 50.68, 0.46 0.45" stroke="transparent" stroke-width="1" fill="none"></path></g><g transform="translate(634.8203125 231.4609375) rotate(0 31 12.5)"><text x="0" y="18" font-family="Virgil, Segoe UI Emoji" font-size="20px" fill="#000" text-anchor="start" style="white-space: pre;" direction="ltr">more...</text></g><g transform="translate(12.6484375 10) rotate(0 120.5 12.5)"><text x="0" y="18" font-family="Virgil, Segoe UI Emoji" font-size="20px" fill="#000" text-anchor="start" style="white-space: pre;" direction="ltr">int32s := []int32{1,2,3}</text></g><g transform="translate(18.24609375 153.4140625) rotate(0 212 12.5)"><text x="0" y="18" font-family="Virgil, Segoe UI Emoji" font-size="20px" fill="#000" text-anchor="start" style="white-space: pre;" direction="ltr">ivals := []any{int32(1), int32(2), int32(3)}</text></g></svg>